<svg xmlns="http://www.w3.org/2000/svg" viewBox="0 0 118.636 92.272">
  <defs>
    <style>
      .cls-1 {
        fill: #556270;
      }
    </style>
  </defs>
  <path id="comments-solid-556270" class="cls-1" d="M85.681,64.954C85.681,46.747,66.506,32,42.841,32S0,46.747,0,64.954C0,72.019,2.9,78.527,7.827,83.9A46.359,46.359,0,0,1,.453,95.128,1.637,1.637,0,0,0,.144,96.92a1.613,1.613,0,0,0,1.5.989A36.265,36.265,0,0,0,19.917,92.76a52.408,52.408,0,0,0,22.924,5.149C66.506,97.909,85.681,83.162,85.681,64.954Zm25.128,45.312a27.9,27.9,0,0,0,7.827-18.949c0-13.779-11.019-25.581-26.631-30.5a30.607,30.607,0,0,1,.268,4.14c0,21.812-22.182,39.545-49.432,39.545a61.751,61.751,0,0,1-6.529-.391C42.8,115.951,58.041,124.272,75.8,124.272a52.121,52.121,0,0,0,22.924-5.149,36.265,36.265,0,0,0,18.269,5.149,1.624,1.624,0,0,0,1.5-.989,1.651,1.651,0,0,0-.309-1.792A45.866,45.866,0,0,1,110.809,110.267Z" transform="translate(0 -32)"/>
</svg>
