<svg xmlns="http://www.w3.org/2000/svg" width="47.918" height="47.918" viewBox="0 0 47.918 47.918">
  <path id="envelope-square-solid-fff" d="M42.784,32H5.134A5.134,5.134,0,0,0,0,37.134v37.65a5.134,5.134,0,0,0,5.134,5.134h37.65a5.134,5.134,0,0,0,5.134-5.134V37.134A5.134,5.134,0,0,0,42.784,32ZM19.051,56.612c-9.7-7.04-9.6-7.058-12.206-9.085V44.835a2.567,2.567,0,0,1,2.567-2.567H38.506a2.567,2.567,0,0,1,2.567,2.567v2.692c-2.607,2.029-2.507,2.046-12.206,9.085-1.123.819-3.358,2.794-4.908,2.77C22.408,59.405,20.176,57.432,19.051,56.612Zm22.021-4.741V67.083a2.567,2.567,0,0,1-2.567,2.567H9.413a2.567,2.567,0,0,1-2.567-2.567V51.871c1.493,1.155,3.565,2.7,10.194,7.51,1.515,1.106,4.062,3.438,6.92,3.424,2.876.014,5.459-2.358,6.922-3.425C37.508,54.57,39.58,53.025,41.073,51.871Z" transform="translate(0 -32)" fill="#fff"/>
</svg>
