<svg xmlns="http://www.w3.org/2000/svg" width="48.107" height="48.107" viewBox="0 0 48.107 48.107">
  <path id="facebook-square-brands-fff" d="M48.107,37.154v37.8a5.156,5.156,0,0,1-5.154,5.154h-9.16V61.079H40.3l.934-7.259H33.793V49.181c0-2.1.58-3.533,3.6-3.533h3.844V39.162a51.684,51.684,0,0,0-5.605-.29c-5.541,0-9.342,3.383-9.342,9.6v5.358H19.758V61.09H26.3V80.107H5.154A5.156,5.156,0,0,1,0,74.953v-37.8A5.156,5.156,0,0,1,5.154,32h37.8A5.156,5.156,0,0,1,48.107,37.154Z" transform="translate(0 -32)" fill="#fff"/>
</svg>
