<svg xmlns="http://www.w3.org/2000/svg" viewBox="0 0 69.946 93.262">
  <defs>
    <style>
      .cls-1 {
        fill: #556270;
      }
    </style>
  </defs>
  <path id="file-code-regular-556270" class="cls-1" d="M67.385,17.84,52.106,2.561A8.743,8.743,0,0,0,45.924,0H8.743A8.743,8.743,0,0,0,0,8.743V84.519a8.743,8.743,0,0,0,8.743,8.743H61.2a8.743,8.743,0,0,0,8.743-8.743v-60.5a8.743,8.743,0,0,0-2.561-6.182ZM60.5,23.315H46.631V9.45ZM8.743,84.519V8.743H37.888V27.687a4.372,4.372,0,0,0,4.372,4.372H61.2v52.46ZM27.264,63.55l-5.979-5.261,5.979-5.261a1.6,1.6,0,0,0,.11-2.3L24.2,47.346a1.6,1.6,0,0,0-2.266-.073l-10.5,9.846a1.6,1.6,0,0,0,0,2.339l10.5,9.846a1.6,1.6,0,0,0,2.266-.073l3.17-3.381a1.6,1.6,0,0,0-.11-2.3ZM42.616,40.262l-4.445-1.29a1.6,1.6,0,0,0-1.986,1.093L26.237,74.329a1.6,1.6,0,0,0,1.093,1.986l4.445,1.29a1.6,1.6,0,0,0,1.986-1.093l9.948-34.265a1.6,1.6,0,0,0-1.092-1.986ZM58.511,57.119l-10.5-9.846a1.6,1.6,0,0,0-2.266.073l-3.17,3.381a1.6,1.6,0,0,0,.11,2.3l5.979,5.262L42.683,63.55a1.6,1.6,0,0,0-.11,2.3l3.17,3.381a1.6,1.6,0,0,0,2.266.073h0l10.5-9.846A1.6,1.6,0,0,0,58.511,57.119Z"/>
</svg>
