<svg xmlns="http://www.w3.org/2000/svg" viewBox="0 0 139.282 104.461">
  <defs>
    <style>
      .cls-1 {
        fill: #556270;
      }
    </style>
  </defs>
  <path id="film-solid-556270" class="cls-1" d="M132.753,64h-2.176v5.441a3.274,3.274,0,0,1-3.264,3.264H116.431a3.274,3.274,0,0,1-3.264-3.264V64H26.115v5.441a3.274,3.274,0,0,1-3.264,3.264H11.97a3.274,3.274,0,0,1-3.264-3.264V64H6.529A6.513,6.513,0,0,0,0,70.529v91.4a6.513,6.513,0,0,0,6.529,6.529H8.705v-5.441a3.274,3.274,0,0,1,3.264-3.264H22.851a3.274,3.274,0,0,1,3.264,3.264v5.441h87.051v-5.441a3.274,3.274,0,0,1,3.264-3.264h10.881a3.274,3.274,0,0,1,3.264,3.264v5.441h2.176a6.513,6.513,0,0,0,6.529-6.529v-91.4A6.513,6.513,0,0,0,132.753,64ZM26.115,147.787a3.274,3.274,0,0,1-3.264,3.264H11.97a3.274,3.274,0,0,1-3.264-3.264V136.905a3.274,3.274,0,0,1,3.264-3.264H22.851a3.274,3.274,0,0,1,3.264,3.264Zm0-26.115a3.274,3.274,0,0,1-3.264,3.264H11.97a3.274,3.274,0,0,1-3.264-3.264V110.79a3.274,3.274,0,0,1,3.264-3.264H22.851a3.274,3.274,0,0,1,3.264,3.264Zm0-26.115a3.274,3.274,0,0,1-3.264,3.264H11.97a3.274,3.274,0,0,1-3.264-3.264V84.675A3.274,3.274,0,0,1,11.97,81.41H22.851a3.274,3.274,0,0,1,3.264,3.264Zm73.994,56.583a3.274,3.274,0,0,1-3.264,3.264H42.437a3.274,3.274,0,0,1-3.264-3.264V126.024a3.274,3.274,0,0,1,3.264-3.264H96.844a3.274,3.274,0,0,1,3.264,3.264Zm0-45.7a3.274,3.274,0,0,1-3.264,3.264H42.437a3.274,3.274,0,0,1-3.264-3.264V80.322a3.274,3.274,0,0,1,3.264-3.264H96.844a3.274,3.274,0,0,1,3.264,3.264Zm30.468,41.349a3.274,3.274,0,0,1-3.264,3.264H116.431a3.274,3.274,0,0,1-3.264-3.264V136.905a3.274,3.274,0,0,1,3.264-3.264h10.881a3.274,3.274,0,0,1,3.264,3.264Zm0-26.115a3.274,3.274,0,0,1-3.264,3.264H116.431a3.274,3.274,0,0,1-3.264-3.264V110.79a3.274,3.274,0,0,1,3.264-3.264h10.881a3.274,3.274,0,0,1,3.264,3.264Zm0-26.115a3.274,3.274,0,0,1-3.264,3.264H116.431a3.274,3.274,0,0,1-3.264-3.264V84.675a3.274,3.274,0,0,1,3.264-3.264h10.881a3.274,3.274,0,0,1,3.264,3.264Z" transform="translate(0 -64)"/>
</svg>
