<svg xmlns="http://www.w3.org/2000/svg" width="48.107" height="48.107" viewBox="0 0 48.107 48.107">
  <path id="github-square-brands-fff" d="M42.953,32H5.154A5.156,5.156,0,0,0,0,37.154v37.8a5.156,5.156,0,0,0,5.154,5.154h37.8a5.156,5.156,0,0,0,5.154-5.154v-37.8A5.156,5.156,0,0,0,42.953,32ZM29.777,73.2c-.9.161-1.235-.4-1.235-.859,0-.58.021-3.544.021-5.938a4.184,4.184,0,0,0-1.213-3.3c3.973-.44,8.161-.988,8.161-7.85a5.513,5.513,0,0,0-1.836-4.188,6.716,6.716,0,0,0-.183-4.832c-1.493-.462-4.907,1.922-4.907,1.922a16.893,16.893,0,0,0-8.934,0s-3.415-2.384-4.907-1.922a6.664,6.664,0,0,0-.183,4.832,5.393,5.393,0,0,0-1.675,4.188c0,6.83,4.005,7.409,7.979,7.85A3.892,3.892,0,0,0,19.726,65.5a3.768,3.768,0,0,1-5.187-1.493A3.741,3.741,0,0,0,11.8,62.175c-1.74-.021-.118,1.1-.118,1.1,1.16.537,1.976,2.6,1.976,2.6,1.042,3.189,6.024,2.115,6.024,2.115,0,1.493.021,3.919.021,4.36,0,.462-.322,1.02-1.235.859a17.815,17.815,0,0,1-12.048-17,17.041,17.041,0,0,1,17.4-17.342c9.858,0,17.847,7.485,17.847,17.342A17.652,17.652,0,0,1,29.777,73.2ZM19.243,66.642c-.2.043-.4-.043-.419-.183-.021-.161.118-.3.322-.344.2-.021.4.064.419.2s-.107.279-.322.322Zm-1.02-.1c0,.14-.161.258-.376.258-.236.021-.4-.1-.4-.258,0-.14.161-.258.376-.258C18.03,66.266,18.223,66.384,18.223,66.545Zm-1.471-.118c-.043.14-.258.2-.44.14-.2-.043-.344-.2-.3-.344s.258-.2.44-.161C16.666,66.126,16.805,66.287,16.752,66.427Zm-1.321-.58c-.1.118-.3.1-.462-.064-.161-.14-.2-.344-.1-.44.1-.118.3-.1.462.064C15.474,65.546,15.528,65.761,15.431,65.847Zm-.977-.977c-.1.064-.279,0-.4-.161s-.118-.344,0-.419c.118-.1.3-.021.4.14A.315.315,0,0,1,14.454,64.87Zm-.7-1.042c-.1.1-.258.043-.376-.064-.118-.14-.14-.3-.043-.376.1-.1.258-.043.376.064C13.831,63.592,13.852,63.753,13.756,63.828Zm-.719-.795a.2.2,0,0,1-.3.043c-.14-.064-.2-.183-.161-.279a.253.253,0,0,1,.3-.043C13.015,62.83,13.079,62.948,13.036,63.034Z" transform="translate(0 -32)" fill="#fff"/>
</svg>
