<svg xmlns="http://www.w3.org/2000/svg" width="48.107" height="48.107" viewBox="0 0 48.107 48.107">
  <path id="google-plus-square-brands-fff" d="M42.953,32H5.154A5.156,5.156,0,0,0,0,37.154v37.8a5.156,5.156,0,0,0,5.154,5.154h37.8a5.156,5.156,0,0,0,5.154-5.154v-37.8A5.156,5.156,0,0,0,42.953,32ZM17.611,66.792a10.738,10.738,0,1,1,0-21.477,10.258,10.258,0,0,1,7.195,2.813l-2.91,2.8a6.025,6.025,0,0,0-4.274-1.654,6.788,6.788,0,0,0,0,13.573,5.826,5.826,0,0,0,6.1-4.628h-6.11V54.529H27.748a8.727,8.727,0,0,1,.172,1.783C27.919,62.443,23.807,66.792,17.611,66.792Zm23.624-8.784H38.121v3.114H34.985V58.008H31.871V54.873h3.114V51.758h3.136v3.114h3.114Z" transform="translate(0 -32)" fill="#fff"/>
</svg>
