<svg xmlns="http://www.w3.org/2000/svg" viewBox="0 0 150.834 120.667">
  <defs>
    <style>
      .cls-1 {
        fill: #556270;
      }
    </style>
  </defs>
  <path id="laptop-code-solid-556270" class="cls-1" d="M60.1,61.665a3.771,3.771,0,0,0,5.333,0L68.1,59a3.771,3.771,0,0,0,0-5.333L59.685,45.25,68.1,36.832a3.771,3.771,0,0,0,0-5.333l-2.666-2.666a3.771,3.771,0,0,0-5.333,0L46.353,42.582a3.771,3.771,0,0,0,0,5.333ZM82.732,59,85.4,61.668a3.771,3.771,0,0,0,5.333,0l13.749-13.749a3.771,3.771,0,0,0,0-5.333L90.731,28.835a3.771,3.771,0,0,0-5.333,0L82.732,31.5a3.771,3.771,0,0,0,0,5.333l8.416,8.416-8.416,8.418a3.771,3.771,0,0,0,0,5.333Zm64.331,39.04H89.921a7.429,7.429,0,0,1-7.716,7.542H67.875a8,8,0,0,1-7.723-7.542H3.771A3.782,3.782,0,0,0,0,101.813v3.771a15.128,15.128,0,0,0,15.083,15.083H135.751a15.128,15.128,0,0,0,15.083-15.083v-3.771A3.782,3.782,0,0,0,147.063,98.042Zm-11.313-86.73A11.346,11.346,0,0,0,124.438,0H26.4A11.346,11.346,0,0,0,15.083,11.313V90.5H135.751Zm-15.083,64.1h-90.5V15.083h90.5Z"/>
</svg>
