<svg xmlns="http://www.w3.org/2000/svg" viewBox="0 0 133.981 130.006">
  <defs>
    <style>
      .cls-1 {
        fill: #556270;
      }
    </style>
  </defs>
  <path id="meetup-brands-556270" class="cls-1" d="M25.088,105.186a2.623,2.623,0,0,1-2.031,3.123,2.572,2.572,0,0,1-3.047-2.031,2.672,2.672,0,0,1,1.955-3.123A2.641,2.641,0,0,1,25.088,105.186Zm36.335,18.13a3.759,3.759,0,0,0-.939,5.078,3.619,3.619,0,0,0,5.078.939,3.671,3.671,0,0,0,.863-5.078,3.536,3.536,0,0,0-5-.939ZM39.587,5.931a2.987,2.987,0,0,0,2.26-3.555A2.837,2.837,0,0,0,38.368.065,3.061,3.061,0,0,0,36.058,3.62a2.919,2.919,0,0,0,3.529,2.311ZM8.686,57.45a5.541,5.541,0,0,0-7.77,1.523,5.681,5.681,0,0,0,1.447,7.846,5.481,5.481,0,0,0,7.77-1.447A5.764,5.764,0,0,0,8.686,57.45ZM77.75,14.056a5.658,5.658,0,0,0,1.955-7.694,5.5,5.5,0,0,0-7.617-1.955,5.709,5.709,0,0,0-1.879,7.77,5.441,5.441,0,0,0,7.541,1.879ZM29.227,28.783a4.4,4.4,0,0,0,1.092-6.018,4.212,4.212,0,0,0-5.865-1.092,4.4,4.4,0,0,0-1.092,6.018A4.164,4.164,0,0,0,29.227,28.783ZM123.76,68.394a3.6,3.6,0,0,0-2.691,4.291,3.455,3.455,0,0,0,4.139,2.691,3.5,3.5,0,0,0,2.691-4.215A3.576,3.576,0,0,0,123.76,68.394Zm10.08-14.422a2.572,2.572,0,0,0-3.047-2.031,2.674,2.674,0,1,0,3.047,2.031ZM113.451,35.258a4.86,4.86,0,0,0-1.244,6.678,4.755,4.755,0,0,0,6.6,1.244,4.915,4.915,0,0,0,1.168-6.678A4.592,4.592,0,0,0,113.451,35.258Zm-1.6,35.4a24.543,24.543,0,0,1-6.678,32.78,23.518,23.518,0,0,1-14.448,4.342,16.343,16.343,0,0,1-26.686,8.278,7.927,7.927,0,0,0-.939.736,21.63,21.63,0,0,1-30.317-5.662,22.37,22.37,0,0,1-3.834-11.909C12.342,96.451,6.1,75.351,18.512,63.747c-7.186-11.909.152-27.27,13.559-29.175C38.444,17.763,59.392,9.79,73.611,20.81a25.135,25.135,0,0,1,33.237,25.671A14.158,14.158,0,0,1,111.851,70.654ZM94.077,89.519c-.787-5.231-10.385-1.168-10.944-6.881-.787-8.125,11.1-25.671,10.157-32.5-.863-6.094-4.926-7.389-8.481-7.465-3.4-.076-4.291.508-5.434,1.168-.736.432-1.676,1.244-2.971-.076-1.6-1.523-2.818-2.971-4.926-3.275-3.123-.508-4.494.508-6.754,2.463-.863.736-3.047,3.275-5.078,2.311-.863-.432-3.91-1.955-6.094-2.895-4.139-1.8-10.157,1.168-12.34,5.078C37.936,53.26,31.563,76.163,30.624,79.21c-2.184,6.754,2.768,12.34,9.369,11.959,2.818-.152,4.647-1.168,6.449-4.418,1.016-1.879,10.588-27.347,11.325-28.591.508-.863,2.26-2.031,3.707-1.295A3.488,3.488,0,0,1,63,60.7c-.279,2.463-7.11,18-7.338,19.729-.863,5.815,6.83,6.754,9.8,1.016.939-1.8,11.6-23.512,12.543-24.96,1.092-1.6,1.879-2.107,2.971-2.031.787,0,2.107.229,1.8,2.768-.355,2.387-8.912,18.358-9.877,22.268a11.741,11.741,0,0,0,6.322,12.848c2.895,1.447,15.87,3.986,14.854-2.818Zm1.447,23.436a6.058,6.058,0,0,0-1.447,8.278,5.832,5.832,0,0,0,8.125,1.523,6.027,6.027,0,0,0,1.523-8.278A5.845,5.845,0,0,0,95.524,112.956Z" transform="translate(0.066 0.015)"/>
</svg>
