<svg xmlns="http://www.w3.org/2000/svg" viewBox="0 0 130.194 91.136">
  <defs>
    <style>
      .cls-1 {
        fill: #556270;
      }
    </style>
  </defs>
  <path id="users-solid-556270" class="cls-1" d="M19.529,71.058A13.019,13.019,0,1,0,6.51,58.039,13.032,13.032,0,0,0,19.529,71.058Zm91.136,0A13.019,13.019,0,1,0,97.646,58.039,13.032,13.032,0,0,0,110.665,71.058Zm6.51,6.51H104.156a12.981,12.981,0,0,0-9.175,3.784,29.756,29.756,0,0,1,15.278,22.255h13.426a6.5,6.5,0,0,0,6.51-6.51v-6.51A13.032,13.032,0,0,0,117.175,77.568Zm-52.078,0A22.784,22.784,0,1,0,42.313,54.784,22.773,22.773,0,0,0,65.1,77.568Zm15.623,6.51H79.032a31.457,31.457,0,0,1-27.87,0H49.474a23.441,23.441,0,0,0-23.435,23.435v5.859a9.767,9.767,0,0,0,9.765,9.765H94.391a9.767,9.767,0,0,0,9.765-9.765v-5.859A23.441,23.441,0,0,0,80.721,84.078ZM35.214,81.352a12.981,12.981,0,0,0-9.175-3.784H13.019A13.032,13.032,0,0,0,0,90.588V97.1a6.5,6.5,0,0,0,6.51,6.51H19.916A29.831,29.831,0,0,1,35.214,81.352Z" transform="translate(0 -32)"/>
</svg>
